<svg xmlns="http://www.w3.org/2000/svg" viewBox="0 0 139 123.884">
  <defs>
    <style>
      .cls-1 {
        opacity: 0.2;
      }

      .cls-2 {
        fill: none;
        stroke-dasharray: 30;
      }

      .cls-3 {
        fill: #d8c3a5;
        font-size: 84px;
        font-family: FreestyleScript-Regular, Freestyle Script;
      }

      .cls-4, .cls-5 {
        stroke: none;
      }

      .cls-5 {
        fill: #707070;
      }
    </style>
  </defs>
  <g id="Group_8" data-name="Group 8" class="cls-1" transform="translate(-205 -277)">
    <g id="Path_6" data-name="Path 6" class="cls-2" transform="translate(205 277)">
      <path class="cls-4" d="M0,0H139V96.044H112.214v27.84l-36.6-27.84H0Z"/>
      <path class="cls-5" d="M 60 -7.62939453125e-06 L 90 -7.62939453125e-06 L 90 2.999992370605469 L 60 2.999992370605469 L 60 -7.62939453125e-06 Z M 120 -7.62939453125e-06 L 139 -7.62939453125e-06 L 139 2.999992370605469 L 139 2.999992370605469 C 139 6.257057189941406 139 10.99999237060547 139 10.99999237060547 L 136 10.99999237060547 L 136 2.999992370605469 L 120 2.999992370605469 L 120 -7.62939453125e-06 Z M 136 40.99999237060547 L 139 40.99999237060547 C 139 40.99999237060547 139 71 139 71 L 136 71 L 136 40.99999237060547 Z M 109.2135620117188 93.04397583007813 L 112.2135620117188 93.04397583007813 L 134.0439758300781 93.04397583007813 L 134.0439758300781 96.04397583007813 C 134.0439758300781 96.04397583007813 112.2135620117188 96.04397583007813 112.2135620117188 96.04397583007813 C 112.2135620117188 96.04397583007813 112.2135620117188 104.2135543823242 112.2135620117188 104.2135543823242 L 109.2135620117188 104.2135543823242 L 109.2135620117188 96.04397583007813 L 109.2135620117188 93.04397583007813 Z M 81.93133544921875 97.07939147949219 L 105.8083801269531 115.2421722412109 L 103.9920959472656 117.6298980712891 L 91.13793182373047 107.8519821166992 C 91.13575744628906 107.8503189086914 91.13493347167969 107.8496932983398 91.13275146484375 107.8480377197266 L 91.03689575195313 107.7751235961914 C 91.02745819091797 107.7679443359375 91.01773071289063 107.7605438232422 91.00829315185547 107.7533645629883 L 91.00043487548828 107.7473907470703 C 90.99172210693359 107.7407608032227 90.98477935791016 107.735481262207 90.97606658935547 107.7288513183594 L 90.96701049804688 107.7219696044922 C 90.96338653564453 107.7192077636719 90.95870971679688 107.7156448364258 90.955078125 107.712890625 L 90.93217468261719 107.6954650878906 C 90.91693115234375 107.6838684082031 90.90100860595703 107.6717529296875 90.88577270507813 107.6601638793945 L 90.86416625976563 107.6437301635742 C 90.829345703125 107.6172409057617 90.7938232421875 107.5902252197266 90.759033203125 107.5637588500977 L 90.72907257080078 107.5409698486328 C 90.72762298583984 107.5398635864258 90.72648620605469 107.5390014648438 90.72503662109375 107.5378952026367 L 90.71206665039063 107.5280303955078 C 90.70046997070313 107.5192108154297 90.68873596191406 107.5102844238281 90.67713928222656 107.50146484375 L 90.66256713867188 107.4903717041016 C 90.658935546875 107.4876174926758 90.65509033203125 107.4846878051758 90.65147399902344 107.48193359375 L 90.64677429199219 107.4783630371094 C 85.18159484863281 103.3211059570313 80.11505889892578 99.46709442138672 80.11505889892578 99.46709442138672 L 81.93133544921875 97.07939147949219 Z M 21.26904296875 93.04397583007813 L 51.26904296875 93.04397583007813 L 51.26904296875 96.04397583007813 C 51.26904296875 96.04397583007813 21.26904296875 96.04397583007813 21.26904296875 96.04397583007813 L 21.26904296875 93.04397583007813 Z M 0 57.31301116943359 L 3 57.31301116943359 L 3 87.31301879882813 L 0 87.31301879882813 L 0 57.31301116943359 Z M 0 -7.62939453125e-06 L 30 -7.62939453125e-06 L 30 2.999992370605469 L 3 2.999992370605469 L 3 27.31301116943359 L 0 27.31301116943359 L 0 -7.62939453125e-06 Z"/>
    </g>
    <text id="Hi" class="cls-3" transform="translate(247 353)"><tspan x="0" y="0">Hi</tspan></text>
  </g>
</svg>
