<svg xmlns="http://www.w3.org/2000/svg" viewBox="0 0 300 300">
  <defs>
    <style>
      .cls-1, .cls-2 {
        fill: rgba(255,255,255,0);
      }

      .cls-3 {
        opacity: 0.85;
      }

      .cls-4, .cls-5 {
        fill: none;
        stroke: #606060;
      }

      .cls-4 {
        stroke-width: 2px;
      }

      .cls-5 {
        stroke-width: 3px;
        opacity: 0.5;
      }

      .cls-6, .cls-7, .cls-8 {
        stroke: none;
      }

      .cls-7 {
        fill: #707070;
      }

      .cls-8 {
        fill: #606060;
      }
    </style>
  </defs>
  <g id="intuitive" transform="translate(-1320 -192)">
    <path id="Path_6" data-name="Path 6" class="cls-1" d="M0,0H300V300H0Z" transform="translate(1320 192)"/>
    <g id="Path_5" data-name="Path 5" class="cls-2" transform="translate(1360 210.247)">
      <path class="cls-6" d="M 190.2216949462891 276.4408874511719 L 80.73098754882813 276.4408874511719 C 80.62071228027344 275.5663146972656 80.51527404785156 274.3189086914063 80.46281433105469 272.5723876953125 C 80.37977600097656 269.8086242675781 80.44146728515625 266.34326171875 80.64612579345703 262.2724914550781 C 80.99935913085938 255.2474670410156 81.66012573242188 248.8685302734375 81.66674041748047 248.8049163818359 L 82.26724243164063 243.0460815429688 L 76.48231506347656 243.2908477783203 C 76.45928192138672 243.2918090820313 74.04232025146484 243.3913421630859 70.28343200683594 243.3913421630859 C 63.77154922485352 243.3913421630859 54.09493255615234 243.1049957275391 44.97566223144531 241.7407684326172 C 31.47220230102539 239.7206573486328 26.83393287658691 236.4685363769531 25.27097129821777 234.7098083496094 C 24.2232780456543 233.5309600830078 23.50535583496094 231.0163116455078 23.30116271972656 227.8104553222656 C 23.16420936584473 225.6602935791016 23.28917121887207 223.7522583007813 23.36914443969727 222.8583526611328 C 23.81728935241699 221.6652069091797 24.78106880187988 219.0057525634766 25.59989356994629 216.1115417480469 C 27.51417350769043 209.3453979492188 27.52252388000488 205.4768981933594 25.61555862426758 202.8328704833984 C 25.34264755249023 202.3780364990234 24.47463035583496 200.6681213378906 23.69050979614258 198.6422271728516 C 23.43870162963867 197.9916687011719 23.23597526550293 197.4157104492188 23.07284545898438 196.9091186523438 C 23.80965232849121 196.6008758544922 24.4429874420166 196.3170318603516 24.90793228149414 196.1024169921875 C 25.75181770324707 195.7129211425781 26.52016258239746 195.3322296142578 27.12997055053711 195.0014190673828 C 27.48773956298828 194.8073425292969 27.77989387512207 194.63623046875 28.02316284179688 194.478271484375 C 30.43093299865723 192.9146118164063 30.54547119140625 190.6651153564453 30.48293304443359 189.7705383300781 C 30.31816101074219 187.412109375 28.57394027709961 185.5223236083984 26.23613929748535 185.1637420654297 C 26.0680046081543 185.1375732421875 25.9022331237793 185.1119842529297 25.73877906799316 185.0867309570313 C 24.48377799987793 184.8928070068359 23.39993286132813 184.725341796875 22.58235549926758 184.5213012695313 C 22.46718406677246 184.4925689697266 22.36469841003418 184.46484375 22.27370071411133 184.4385070800781 C 22.3229866027832 184.3049011230469 22.38163757324219 184.1541900634766 22.45147132873535 183.9847717285156 C 22.80612564086914 183.1243896484375 23.29824066162109 182.1415710449219 23.81924057006836 181.1010437011719 C 25.80404853820801 177.1369934082031 28.05370140075684 172.64404296875 26.09766387939453 168.2715759277344 C 24.05647087097168 163.7104187011719 19.12093162536621 161.4259643554688 14.34785556793213 159.2167358398438 C 12.10847091674805 158.1801910400391 9.792778968811035 157.1083374023438 8.225971221923828 155.9692230224609 C 7.575555324554443 155.4963684082031 6.794025897979736 154.8228149414063 6.641960144042969 154.2274475097656 C 6.711131572723389 153.8036041259766 7.173516750335693 151.9983367919922 10.25754737854004 147.2501831054688 C 12.68820190429688 143.5078887939453 15.99839401245117 139.0652313232422 19.19954872131348 134.7688446044922 C 28.25339317321777 122.6174621582031 33.80247116088867 114.8803863525391 33.80247116088867 109.176383972168 L 33.80247116088867 106.7532272338867 L 31.90050888061523 105.2518463134766 C 30.18993186950684 103.901496887207 28.83754730224609 101.7185745239258 27.76616287231445 98.57834625244141 C 26.71635627746582 95.50145721435547 26.15189361572266 92.07134246826172 25.69835472106934 89.31519317626953 C 25.64104843139648 88.96680450439453 25.58527946472168 88.62815093994141 25.53039360046387 88.30065155029297 C 24.39931678771973 81.55476379394531 24.64997100830078 76.14565277099609 25.05943298339844 72.79576873779297 C 25.48429679870605 69.31973266601563 26.16345596313477 67.27529144287109 26.23026657104492 67.07989501953125 L 26.34274101257324 66.78607177734375 L 26.39437294006348 66.53596496582031 C 26.43941307067871 66.35323333740234 27.72572135925293 61.19599914550781 30.6647777557373 54.4653434753418 C 32.39350891113281 50.50642013549805 34.34893417358398 46.78257369995117 36.47677993774414 43.39726638793945 C 39.09173965454102 39.23699951171875 41.97196960449219 35.58530426025391 45.03750991821289 32.54353713989258 C 47.9992790222168 29.60469055175781 52.18916320800781 26.56392097473145 56.83535385131836 23.98126792907715 C 62.47024154663086 20.84907531738281 68.68916320800781 18.44915199279785 74.81981658935547 17.0409984588623 C 84.64089202880859 14.78484439849854 96.86920166015625 13.68811321258545 112.203742980957 13.68811321258545 C 114.9180068969727 13.68811321258545 117.3885116577148 13.7202672958374 119.3735885620117 13.74607467651367 C 120.8428192138672 13.76522922515869 122.1117401123047 13.78172874450684 123.1448974609375 13.78172874450684 C 131.2281188964844 13.78172874450684 138.8565521240234 14.32634449005127 145.818359375 15.40042114257813 C 152.6407012939453 16.45299911499023 159.0154724121094 18.04388236999512 164.7655792236328 20.12888336181641 C 170.3905792236328 22.16853713989258 175.5819702148438 24.74099731445313 180.1954650878906 27.77480506896973 C 184.7260131835938 30.75407600402832 188.8397064208984 34.27107620239258 192.4221954345703 38.22807693481445 C 195.9713897705078 42.14826583862305 199.1119689941406 46.62457656860352 201.7566986083984 51.53261184692383 C 204.3931579589844 56.42534255981445 206.6175537109375 61.89599990844727 208.3680877685547 67.79257202148438 C 210.1130065917969 73.67034149169922 211.4382781982422 80.14322662353516 212.3070831298828 87.03150177001953 C 213.1701202392578 93.87400054931641 213.6076965332031 101.3246154785156 213.6076965332031 109.176383972168 C 213.6076965332031 111.1925354003906 213.63916015625 112.9801940917969 213.6696319580078 114.7089614868164 C 213.7808532714844 121.0256500244141 213.8543548583984 125.19873046875 212.2085113525391 131.3040008544922 C 211.328857421875 134.5671081542969 209.9628601074219 138.3199157714844 208.0323944091797 142.7769165039063 C 205.9588623046875 147.5643463134766 203.1626281738281 153.3336944580078 199.4839324951172 160.4146575927734 C 197.4217834472656 164.3841094970703 195.1737365722656 173.8406524658203 192.2230072021484 186.7667694091797 C 191.1169281005859 191.6120758056641 190.0722351074219 196.1886444091797 189.4575042724609 198.2100677490234 L 189.372314453125 198.490234375 L 189.3203887939453 198.7784271240234 C 185.5321960449219 219.8084259033203 186.285400390625 241.4324645996094 187.5842742919922 255.8695678710938 C 188.3696746826172 264.59912109375 189.4259490966797 271.751953125 190.2216949462891 276.4408874511719 Z"/>
      <path class="cls-7" d="M 184.3635406494141 271.4408874511719 C 182.0404968261719 255.5260009765625 179.27783203125 226.3251342773438 184.3996276855469 197.8920135498047 L 184.5034484863281 197.3156433105469 L 184.6738128662109 196.75537109375 C 185.3011627197266 194.6924591064453 186.2459411621094 190.4835968017578 187.3483581542969 185.6542816162109 C 190.4785308837891 171.9420623779297 192.7054443359375 162.6167907714844 195.0469818115234 158.1095581054688 C 208.9614410400391 131.3261871337891 208.876220703125 126.4873733520508 208.6703491210938 114.7970123291016 L 208.607666015625 109.1763763427734 C 208.607666015625 46.66046524047852 182.2499847412109 18.78174018859863 123.1448974609375 18.78174018859863 L 119.3087615966797 18.74569320678711 L 112.2036666870117 18.68810272216797 C 97.25071716308594 18.68810272216797 85.38858032226563 19.74328422546387 75.93917083740234 21.9140567779541 C 63.36648941040039 24.80196762084961 53.33208084106445 31.3569221496582 48.55926132202148 36.09287643432617 C 36.09449005126953 48.46087646484375 31.29717063903809 67.53682708740234 31.25557899475098 67.70583343505859 L 31.10476112365723 68.27428436279297 L 30.95957946777344 68.70269775390625 C 30.93521499633789 68.77465057373047 28.54298782348633 76.03128814697266 30.461669921875 87.47432708740234 L 30.63198852539063 88.50328826904297 C 31.25180625915527 92.26959991455078 32.40544128417969 99.28024291992188 34.99858093261719 101.3273315429688 L 38.80244445800781 104.3301467895508 L 38.80244445800781 109.1763763427734 C 38.80244445800781 116.4725112915039 33.16789627075195 124.3901062011719 23.20898818969727 137.7561950683594 C 19.95896530151367 142.1181335449219 14.95737648010254 148.8309020996094 12.66944408416748 152.8421783447266 C 13.87581253051758 153.4886016845703 15.37532615661621 154.1826629638672 16.44816970825195 154.6792449951172 C 21.53048896789551 157.0316467285156 27.85562515258789 159.9592895507813 30.66180610656738 166.2297821044922 C 33.00809860229492 171.4746704101563 31.41865348815918 176.6092834472656 29.60953903198242 180.6093444824219 L 34.91021728515625 181.3955993652344 L 35.47080612182617 189.4223327636719 C 35.70787811279297 192.8164672851563 34.95359039306641 196.3170013427734 29.43526077270508 199.5323638916016 C 29.46521186828613 199.5962829589844 29.49181365966797 199.6512451171875 29.51462554931641 199.6963348388672 C 31.24953651428223 201.9944152832031 34.81315994262695 206.7153167724609 28.28652954101563 224.0074005126953 C 28.08638381958008 226.9826507568359 28.43382453918457 230.4539794921875 29.00848770141602 231.3884735107422 C 31.51003456115723 234.203369140625 44.56653213500977 238.3913269042969 70.28339385986328 238.3913269042969 C 73.87471771240234 238.3913269042969 76.17194366455078 238.2994232177734 76.27475738525391 238.2951507568359 L 87.83699035644531 237.8159637451172 L 86.63985443115234 249.3223266601563 C 85.80418395996094 257.3547668457031 85.36738586425781 265.9244689941406 85.43378448486328 271.4408874511719 L 184.3635406494141 271.4408874511719 M 196.2438507080078 281.4408874511719 C 196.2438507080078 281.4408874511719 103.8736267089844 281.4408874511719 77.74544525146484 281.4408874511719 C 73.23662567138672 281.4408874511719 76.69367218017578 248.286376953125 76.69367218017578 248.286376953125 C 76.69367218017578 248.286376953125 74.21304321289063 248.3913421630859 70.28339385986328 248.3913421630859 C 57.58942031860352 248.3913421630859 29.7673168182373 247.2964019775391 21.53357887268066 238.0311889648438 C 17.00376129150391 232.9343719482422 18.46435165405273 221.6869201660156 18.46435165405273 221.6869201660156 C 18.46435165405273 221.6869201660156 23.63966941833496 208.5112915039063 21.53357887268066 205.7215118408203 C 20.84712409973145 204.8109741210938 17.29562377929688 197.5640106201172 17.40553283691406 193.6522369384766 C 21.1522159576416 192.5528717041016 25.82776069641113 190.1573333740234 25.47648811340332 190.1056976318359 C 21.47107887268066 189.4826965332031 18.8046703338623 189.1636047363281 17.40553283691406 186.84423828125 C 15.15330696105957 183.1115570068359 23.50444221496582 174.7189636230469 21.53357887268066 170.3133239746094 C 18.6950798034668 163.9706420898438 2.600806474685669 162.6773834228516 1.655579209327698 154.7038269042969 C 0.6969883441925049 146.6206512451172 28.80244255065918 117.9838790893555 28.80244255065918 109.1763763427734 C 22.8389892578125 104.4687423706055 21.58139801025391 94.98869323730469 20.59917068481445 89.12696838378906 C 18.15266990661621 74.53596496582031 21.53357887268066 65.36433410644531 21.53357887268066 65.36433410644531 C 21.53357887268066 65.36433410644531 26.76907920837402 43.62651062011719 41.51580810546875 28.99428558349609 C 47.47985076904297 23.07633018493652 59.19771575927734 15.49910354614258 73.70053100585938 12.16787624359131 C 86.81719207763672 9.154637336730957 101.6963653564453 8.688109397888184 112.2036666870117 8.688109397888184 C 116.9135208129883 8.688109397888184 120.7427368164063 8.781739234924316 123.1448974609375 8.781739234924316 C 190.4848480224609 8.781739234924316 218.607666015625 44.89169311523438 218.607666015625 109.1763763427734 C 218.607666015625 126.2507400512695 220.9742584228516 129.8943786621094 203.9208984375 162.7197418212891 C 200.9623565673828 168.4145965576172 196.1508026123047 193.3853759765625 194.2412109375 199.6648254394531 C 187.0989379882813 239.3146057128906 196.2438507080078 281.4408874511719 196.2438507080078 281.4408874511719 Z"/>
    </g>
    <g id="bulb" transform="matrix(0.914, -0.407, 0.407, 0.914, 1409.823, 269.775)">
      <g id="Path_7" data-name="Path 7" class="cls-2" transform="translate(0 0)">
        <path class="cls-6" d="M 50.82340621948242 150.9701690673828 C 48.39372634887695 150.9701690673828 43.90424728393555 149.7950286865234 39.24786758422852 146.4831237792969 C 36.96988677978516 144.8628845214844 34.9920654296875 142.9639892578125 33.369384765625 140.8392028808594 C 31.54140663146973 138.4455871582031 30.20398712158203 135.8068084716797 29.39426612854004 132.9961700439453 C 28.55920600891113 130.0975799560547 28.49508666992188 124.7906646728516 28.42718696594238 119.1721267700195 C 28.34582710266113 112.4386672973633 28.26168632507324 105.4759674072266 26.83548545837402 101.1746826171875 C 23.69850540161133 91.76376342773438 17.56252670288086 83.88418579101563 12.14884662628174 76.93216705322266 C 6.434826374053955 69.59442138671875 1.500006198883057 63.25734329223633 1.500006198883057 57.17630386352539 C 1.500006198883057 49.69234466552734 2.932446241378784 42.36770629882813 5.757566452026367 35.40584564208984 C 7.091586112976074 32.11840438842773 8.736226081848145 28.9309253692627 10.64578628540039 25.93196487426758 C 12.51330661773682 22.99898529052734 14.64596652984619 20.22728538513184 16.98452568054199 17.69384384155273 C 19.29416656494141 15.19172477722168 21.81444549560547 12.91116428375244 24.47530555725098 10.91550445556641 C 27.13160705566406 8.923284530639648 29.93728637695313 7.208044528961182 32.81444549560547 5.817424297332764 C 35.71744537353516 4.414304733276367 38.70582580566406 3.335804462432861 41.6965446472168 2.611844539642334 C 44.74436569213867 1.87408459186554 47.81508636474609 1.500004529953003 50.82340621948242 1.500004529953003 C 53.83172607421875 1.500004529953003 56.90242767333984 1.87408459186554 59.95024490356445 2.611844539642334 C 62.94098663330078 3.335804462432861 65.92936706542969 4.414304733276367 68.83236694335938 5.817424297332764 C 71.70950317382813 7.208044528961182 74.51518249511719 8.923284530639648 77.17148590087891 10.91550445556641 C 79.83236694335938 12.91116428375244 82.35262298583984 15.19172477722168 84.66228485107422 17.69384384155273 C 87.00084686279297 20.22728538513184 89.13350677490234 22.99898529052734 91.00102996826172 25.93196487426758 C 92.91058349609375 28.93094444274902 94.55520629882813 32.11840438842773 95.88924407958984 35.40584564208984 C 98.71436309814453 42.36772537231445 100.1468048095703 49.69236373901367 100.1468048095703 57.17632293701172 C 100.1468048095703 59.857666015625 99.17346954345703 62.73648452758789 97.08364868164063 66.23614501953125 C 95.13490295410156 69.49954223632813 92.44094848632813 72.91860198974609 89.58880615234375 76.53840637207031 C 84.03247833251953 83.59025573730469 77.73589324951172 91.5816650390625 74.81268310546875 101.1686706542969 C 73.22683715820313 105.4834671020508 72.60141754150391 111.4453277587891 71.93928527832031 117.75634765625 C 71.39332580566406 122.9600448608398 70.82878875732422 128.3408813476563 69.69432830810547 133.0608673095703 C 68.05530548095703 139.8799591064453 64.21332550048828 144.1556091308594 61.27888488769531 146.5416717529297 C 57.26334762573242 149.8067779541016 53.2450065612793 150.9701690673828 50.82340621948242 150.9701690673828 Z"/>
        <path class="cls-8" d="M 50.82340621948242 149.4701690673828 C 52.04623413085938 149.4701690673828 53.5744514465332 149.124755859375 55.12653732299805 148.4975433349609 C 56.90751647949219 147.7778167724609 58.70773315429688 146.6990356445313 60.33258056640625 145.3778381347656 C 63.08742904663086 143.1378021240234 66.69481658935547 139.1217651367188 68.23583984375 132.7102966308594 C 69.34727478027344 128.0862426757813 69.90657806396484 122.7552337646484 70.44747161865234 117.5997619628906 C 71.11762237548828 111.2123870849609 71.75072479248047 105.1773223876953 73.39008331298828 100.6912536621094 C 76.40038299560547 90.85260009765625 82.77999877929688 82.75620269775391 88.41059875488281 75.61006164550781 C 91.23190307617188 72.02938842773438 93.896728515625 68.64730072021484 95.79579925537109 65.46710968017578 C 97.74088287353516 62.20982360839844 98.64682006835938 59.57536697387695 98.64682006835938 57.17632293701172 C 98.64682006835938 49.88662719726563 97.25140380859375 42.75175857543945 94.49934387207031 35.96989059448242 C 93.19936370849609 32.7663688659668 91.59664154052734 29.66019248962402 89.73575592041016 26.73762893676758 C 87.91603851318359 23.87975883483887 85.8382568359375 21.17930221557617 83.56008148193359 18.71128082275391 C 81.31199645996094 16.27584457397461 78.85975646972656 14.05671501159668 76.27149200439453 12.11551952362061 C 73.6923828125 10.18119335174561 70.96988677978516 8.516606330871582 68.17960357666016 7.167975902557373 C 65.37227630615234 5.811084747314453 62.48479843139648 4.768714904785156 59.59733963012695 4.069758415222168 C 56.6649284362793 3.359932422637939 53.71294784545898 3.000019311904907 50.82338333129883 3.000019311904907 C 47.93403625488281 3.000019311904907 44.98223114013672 3.359954118728638 42.04994964599609 4.069823741912842 C 39.16262435913086 4.768801689147949 36.27518844604492 5.811258316040039 33.4679069519043 7.168193340301514 C 30.67764472961426 8.516910552978516 27.95514488220215 10.18158435821533 25.37601470947266 12.11599731445313 C 22.78773307800293 14.05728054046631 20.33544921875 16.27649688720703 18.0872974395752 18.71199798583984 C 15.80905818939209 21.18008422851563 13.73121070861816 23.88058471679688 11.91142749786377 26.73849678039551 C 10.05047130584717 29.66108512878418 8.447710990905762 32.76725769042969 7.147666931152344 35.97073745727539 C 4.395493030548096 42.75254058837891 3.000015020370483 49.88710784912109 3.000015020370483 57.17630004882813 C 3.000015020370483 62.74219512939453 7.788145542144775 68.89090728759766 13.33234119415283 76.01055908203125 C 18.82014465332031 83.05776214599609 25.04014587402344 91.04523468017578 28.25925445556641 100.7026062011719 C 29.75875473022461 105.2249298095703 29.84431838989258 112.306022644043 29.92708015441895 119.1539764404297 C 29.99077606201172 124.4257125854492 30.05664443969727 129.876953125 30.83564567565918 132.5809173583984 C 32.65590667724609 138.8993072509766 36.88773345947266 142.9637603759766 40.11727523803711 145.2607727050781 C 44.20553588867188 148.1686096191406 48.44021224975586 149.4701690673828 50.82340621948242 149.4701690673828 M 50.82340621948242 152.4701690673828 C 44.47049331665039 152.4701690673828 31.61331939697266 146.1172637939453 27.95288467407227 133.4114074707031 C 26.03562355041504 126.7563705444336 27.93947219848633 109.2702789306641 25.41171073913574 101.6467819213867 C 19.05877494812012 82.58799743652344 1.49151346704457e-05 69.88214874267578 1.49151346704457e-05 57.17630004882813 C -6.822669092798606e-06 25.41363143920898 25.41322898864746 1.931629958562553e-05 50.82337188720703 1.931629958562553e-05 C 50.82492446899414 1.931629958562553e-05 50.82185363769531 1.931497354235034e-05 50.82340621948242 1.931629958562553e-05 C 76.23509979248047 1.931629958562553e-05 101.6467971801758 25.41171455383301 101.6468200683594 57.17632293701172 C 101.6468200683594 69.88217163085938 82.02384185791016 82.58802032470703 76.23509979248047 101.6467819213867 C 73.41516876220703 109.2703018188477 73.68703460693359 122.8676071166992 71.15277862548828 133.4114074707031 C 68.09886169433594 146.1172637939453 57.17634201049805 152.4701690673828 50.82340621948242 152.4701690673828 Z"/>
      </g>
      <g id="Group_4" data-name="Group 4" class="cls-3" transform="translate(32.721 111.261)">
        <line id="Line_8" data-name="Line 8" class="cls-4" x2="34.261" transform="translate(0 0)"/>
        <line id="Line_8-2" data-name="Line 8" class="cls-4" x2="31.258" transform="translate(1.447 6.665)"/>
        <line id="Line_8-3" data-name="Line 8" class="cls-4" x2="28.255" transform="translate(2.894 13.33)"/>
        <line id="Line_8-4" data-name="Line 8" class="cls-4" x2="24.706" transform="translate(4.432 19.792)"/>
        <line id="Line_8-5" data-name="Line 8" class="cls-4" x2="21.703" transform="translate(5.879 26.457)"/>
        <path id="Path_14" data-name="Path 14" class="cls-4" d="M0,0" transform="translate(25.001 32.666)"/>
      </g>
      <g id="Group_5" data-name="Group 5" transform="matrix(0.914, 0.407, -0.407, 0.914, 36.448, 14.73)">
        <g id="Path_8" data-name="Path 8" class="cls-2" transform="matrix(-0.998, -0.07, 0.07, -0.998, 54.276, 71.3)">
          <path class="cls-6" d="M 1.517800807952881 25.87330436706543 C 1.506616711616516 25.78598213195801 1.498266220092773 25.66618728637695 1.500312447547913 25.50670051574707 C 1.530962467193604 23.11774063110352 4.555232524871826 17.68314170837402 9.205002784729004 11.66140174865723 C 11.24078273773193 9.024950981140137 13.40710258483887 6.512271404266357 15.30489253997803 4.586231231689453 C 16.04839897155762 3.831656217575073 16.66020393371582 3.259061336517334 17.15757942199707 2.825126171112061 C 16.64752006530762 3.998675107955933 15.77485942840576 5.761410713195801 14.28310203552246 8.379131317138672 C 12.52285289764404 11.46800136566162 11.37435245513916 13.99321174621582 10.77197265625 16.09904098510742 C 10.31815242767334 17.68551063537598 10.17956924438477 19.0295295715332 10.35537147521973 20.17065238952637 C 8.457552909851074 21.64675140380859 6.531372547149658 23.10392379760742 4.907742500305176 24.16646194458008 C 2.888002157211304 25.48822402954102 1.930765867233276 25.8073787689209 1.517800807952881 25.87330436706543 Z M 31.74098777770996 22.92255210876465 C 31.58902359008789 22.65911483764648 31.40373039245605 22.41641807556152 31.18545341491699 22.19532203674316 C 29.93223190307617 20.9259204864502 27.92751312255859 20.77911186218262 26.52861213684082 20.77911186218262 C 25.08925247192383 20.77911186218262 23.4414119720459 20.9626407623291 21.84782218933105 21.1401309967041 C 20.2496223449707 21.31813049316406 18.59701156616211 21.5021915435791 17.16987228393555 21.5021915435791 C 15.60409736633301 21.5021915435791 14.70532417297363 21.28128623962402 14.17561340332031 20.98956871032715 C 14.34514999389648 20.85626792907715 14.51518058776855 20.72251892089844 14.68570232391357 20.58838081359863 C 17.84737205505371 18.10136032104492 21.11667251586914 15.52967166900635 24.08481216430664 13.56838130950928 C 27.2226734161377 11.49496173858643 29.54428291320801 10.43380165100098 30.98517227172852 10.41437149047852 C 30.9979419708252 10.4142017364502 31.00981330871582 10.41412162780762 31.02246284484863 10.41412162780762 C 31.60956192016602 10.41412162780762 32.21457290649414 10.55812168121338 32.66239166259766 11.60274124145508 C 33.34160232543945 13.18713092803955 33.32177352905273 16.19092178344727 32.60935211181641 19.63788032531738 C 32.35232925415039 20.88144302368164 32.04502868652344 21.99526214599609 31.74098777770996 22.92255210876465 Z"/>
          <path class="cls-8" d="M 3.691536426544189 23.16530418395996 C 3.902439117431641 23.03198051452637 4.130015850067139 22.8841381072998 4.37504243850708 22.72038078308105 C 5.712303161621094 21.82665824890137 7.247709274291992 20.67712211608887 8.78834342956543 19.48750114440918 C 8.719407081604004 17.55179977416992 9.298345565795898 15.22356605529785 10.5630464553833 12.3576831817627 C 10.39352703094482 12.57583236694336 10.22490978240967 12.79486083984375 10.05756282806396 13.01432132720947 C 7.969342708587646 15.75284099578857 6.202382564544678 18.3900203704834 4.947712421417236 20.64076042175293 C 4.379603385925293 21.65989112854004 3.976894855499268 22.49326705932617 3.691536426544189 23.16530418395996 M 30.95376396179199 20.17590713500977 C 31.13011932373047 19.42963600158691 31.27943992614746 18.6727294921875 31.39351272583008 17.93970108032227 C 32.02472686767578 13.88344192504883 31.38318634033203 12.21680164337158 31.13568496704102 11.92088794708252 C 31.11250305175781 11.91757392883301 31.07559204101563 11.91412162780762 31.02246284484863 11.91412162780762 L 31.0053825378418 11.91424083709717 C 30.48471260070801 11.92126083374023 28.84865188598633 12.21843147277832 24.91176223754883 14.81985092163086 C 22.69454193115234 16.28493690490723 20.28778266906738 18.11124229431152 17.88238906860352 19.98732948303223 C 19.06396102905273 19.94090270996094 20.39111328125 19.79309272766113 21.68178176879883 19.64935111999512 C 23.31606292724609 19.46733093261719 25.00597190856934 19.27911186218262 26.52861213684082 19.27911186218262 C 27.79573631286621 19.27911186218262 29.49009704589844 19.39059066772461 30.95376396179199 20.17590713500977 M 1.347479104995728 27.38866806030273 C 0.4730979800224304 27.38866806030273 -0.01667941734194756 26.82138061523438 0.0004324920591898263 25.48746109008789 C 0.08428048342466354 18.95186614990234 15.93320560455322 2.679138106032042e-06 18.89736747741699 2.679138106032042e-06 C 19.98061370849609 2.679138106032042e-06 19.34284782409668 2.52993106842041 15.58634281158447 9.121810913085938 C 12.07827186584473 15.27774047851563 11.27987194061279 18.79612731933594 12.05224609375 20.7491569519043 C 7.44279146194458 24.35628128051758 3.368302822113037 27.38866806030273 1.347479104995728 27.38866806030273 Z M 31.22325897216797 26.98611259460449 C 30.92558288574219 26.98611259460449 30.74041748046875 26.41549491882324 30.75764274597168 25.07286071777344 C 30.7860164642334 22.8614673614502 29.00767707824707 22.27910804748535 26.52861022949219 22.27910804748535 C 23.76683235168457 22.27910804748535 20.13740348815918 23.0021915435791 17.16987037658691 23.0021915435791 C 14.73836803436279 23.0021915435791 12.75124931335449 22.51665878295898 12.05224609375 20.7491569519043 C 18.79133415222168 15.47549057006836 26.67524147033691 8.972335815429688 30.96495246887207 8.914511680603027 C 30.98465156555176 8.91424560546875 31.00295257568359 8.914122581481934 31.0224666595459 8.914122581481934 C 38.15038299560547 8.914122581481934 32.8995475769043 26.98611259460449 31.22325897216797 26.98611259460449 Z"/>
        </g>
        <g id="Path_9" data-name="Path 9" class="cls-2" transform="matrix(-0.998, -0.07, 0.07, -0.998, 48.934, 61.291)">
          <path class="cls-6" d="M 1.517800807952881 25.87330436706543 C 1.506616711616516 25.78598213195801 1.498266220092773 25.66618728637695 1.500312447547913 25.50670051574707 C 1.530962467193604 23.11774063110352 4.555232524871826 17.68314170837402 9.205002784729004 11.66140174865723 C 11.24078273773193 9.024950981140137 13.40710258483887 6.512271404266357 15.30489253997803 4.586231231689453 C 16.04839897155762 3.831656217575073 16.66020393371582 3.259061336517334 17.15757942199707 2.825126171112061 C 16.64752006530762 3.998675107955933 15.77485942840576 5.761410713195801 14.28310203552246 8.379131317138672 C 12.52285289764404 11.46800136566162 11.37435245513916 13.99321174621582 10.77197265625 16.09904098510742 C 10.31815242767334 17.68551063537598 10.17956924438477 19.0295295715332 10.35537147521973 20.17065238952637 C 8.457552909851074 21.64675140380859 6.531372547149658 23.10392379760742 4.907742500305176 24.16646194458008 C 2.888002157211304 25.48822402954102 1.930765867233276 25.8073787689209 1.517800807952881 25.87330436706543 Z M 31.74098777770996 22.92255210876465 C 31.58902359008789 22.65911483764648 31.40373039245605 22.41641807556152 31.18545341491699 22.19532203674316 C 29.93223190307617 20.9259204864502 27.92751312255859 20.77911186218262 26.52861213684082 20.77911186218262 C 25.08925247192383 20.77911186218262 23.4414119720459 20.9626407623291 21.84782218933105 21.1401309967041 C 20.2496223449707 21.31813049316406 18.59701156616211 21.5021915435791 17.16987228393555 21.5021915435791 C 15.60409736633301 21.5021915435791 14.70532417297363 21.28128623962402 14.17561340332031 20.98956871032715 C 14.34514999389648 20.85626792907715 14.51518058776855 20.72251892089844 14.68570232391357 20.58838081359863 C 17.84737205505371 18.10136032104492 21.11667251586914 15.52967166900635 24.08481216430664 13.56838130950928 C 27.2226734161377 11.49496173858643 29.54428291320801 10.43380165100098 30.98517227172852 10.41437149047852 C 30.9979419708252 10.4142017364502 31.00981330871582 10.41412162780762 31.02246284484863 10.41412162780762 C 31.60956192016602 10.41412162780762 32.21457290649414 10.55812168121338 32.66239166259766 11.60274124145508 C 33.34160232543945 13.18713092803955 33.32177352905273 16.19092178344727 32.60935211181641 19.63788032531738 C 32.35232925415039 20.88144302368164 32.04502868652344 21.99526214599609 31.74098777770996 22.92255210876465 Z"/>
          <path class="cls-8" d="M 3.691536426544189 23.16530418395996 C 3.902439117431641 23.03198051452637 4.130015850067139 22.8841381072998 4.37504243850708 22.72038078308105 C 5.712303161621094 21.82665824890137 7.247709274291992 20.67712211608887 8.78834342956543 19.48750114440918 C 8.719407081604004 17.55179977416992 9.298345565795898 15.22356605529785 10.5630464553833 12.3576831817627 C 10.39352703094482 12.57583236694336 10.22490978240967 12.79486083984375 10.05756282806396 13.01432132720947 C 7.969342708587646 15.75284099578857 6.202382564544678 18.3900203704834 4.947712421417236 20.64076042175293 C 4.379603385925293 21.65989112854004 3.976894855499268 22.49326705932617 3.691536426544189 23.16530418395996 M 30.95376396179199 20.17590713500977 C 31.13011932373047 19.42963600158691 31.27943992614746 18.6727294921875 31.39351272583008 17.93970108032227 C 32.02472686767578 13.88344192504883 31.38318634033203 12.21680164337158 31.13568496704102 11.92088794708252 C 31.11250305175781 11.91757392883301 31.07559204101563 11.91412162780762 31.02246284484863 11.91412162780762 L 31.0053825378418 11.91424083709717 C 30.48471260070801 11.92126083374023 28.84865188598633 12.21843147277832 24.91176223754883 14.81985092163086 C 22.69454193115234 16.28493690490723 20.28778266906738 18.11124229431152 17.88238906860352 19.98732948303223 C 19.06396102905273 19.94090270996094 20.39111328125 19.79309272766113 21.68178176879883 19.64935111999512 C 23.31606292724609 19.46733093261719 25.00597190856934 19.27911186218262 26.52861213684082 19.27911186218262 C 27.79573631286621 19.27911186218262 29.49009704589844 19.39059066772461 30.95376396179199 20.17590713500977 M 1.347479104995728 27.38866806030273 C 0.4730979800224304 27.38866806030273 -0.01667941734194756 26.82138061523438 0.0004324920591898263 25.48746109008789 C 0.08428048342466354 18.95186614990234 15.93320560455322 2.679138106032042e-06 18.89736747741699 2.679138106032042e-06 C 19.98061370849609 2.679138106032042e-06 19.34284782409668 2.52993106842041 15.58634281158447 9.121810913085938 C 12.07827186584473 15.27774047851563 11.27987194061279 18.79612731933594 12.05224609375 20.7491569519043 C 7.44279146194458 24.35628128051758 3.368302822113037 27.38866806030273 1.347479104995728 27.38866806030273 Z M 31.22325897216797 26.98611259460449 C 30.92558288574219 26.98611259460449 30.74041748046875 26.41549491882324 30.75764274597168 25.07286071777344 C 30.7860164642334 22.8614673614502 29.00767707824707 22.27910804748535 26.52861022949219 22.27910804748535 C 23.76683235168457 22.27910804748535 20.13740348815918 23.0021915435791 17.16987037658691 23.0021915435791 C 14.73836803436279 23.0021915435791 12.75124931335449 22.51665878295898 12.05224609375 20.7491569519043 C 18.79133415222168 15.47549057006836 26.67524147033691 8.972335815429688 30.96495246887207 8.914511680603027 C 30.98465156555176 8.91424560546875 31.00295257568359 8.914122581481934 31.0224666595459 8.914122581481934 C 38.15038299560547 8.914122581481934 32.8995475769043 26.98611259460449 31.22325897216797 26.98611259460449 Z"/>
        </g>
        <g id="Path_10" data-name="Path 10" class="cls-2" transform="matrix(-0.998, -0.07, 0.07, -0.998, 48.934, 61.291)">
          <path class="cls-6" d="M 1.517800807952881 25.87330436706543 C 1.506616711616516 25.78598213195801 1.498266220092773 25.66618728637695 1.500312447547913 25.50670051574707 C 1.530962467193604 23.11774063110352 4.555232524871826 17.68314170837402 9.205002784729004 11.66140174865723 C 11.24078273773193 9.024950981140137 13.40710258483887 6.512271404266357 15.30489253997803 4.586231231689453 C 16.04839897155762 3.831656217575073 16.66020393371582 3.259061336517334 17.15757942199707 2.825126171112061 C 16.64752006530762 3.998675107955933 15.77485942840576 5.761410713195801 14.28310203552246 8.379131317138672 C 12.52285289764404 11.46800136566162 11.37435245513916 13.99321174621582 10.77197265625 16.09904098510742 C 10.31815242767334 17.68551063537598 10.17956924438477 19.0295295715332 10.35537147521973 20.17065238952637 C 8.457552909851074 21.64675140380859 6.531372547149658 23.10392379760742 4.907742500305176 24.16646194458008 C 2.888002157211304 25.48822402954102 1.930765867233276 25.8073787689209 1.517800807952881 25.87330436706543 Z M 31.74098777770996 22.92255210876465 C 31.58902359008789 22.65911483764648 31.40373039245605 22.41641807556152 31.18545341491699 22.19532203674316 C 29.93223190307617 20.9259204864502 27.92751312255859 20.77911186218262 26.52861213684082 20.77911186218262 C 25.08925247192383 20.77911186218262 23.4414119720459 20.9626407623291 21.84782218933105 21.1401309967041 C 20.2496223449707 21.31813049316406 18.59701156616211 21.5021915435791 17.16987228393555 21.5021915435791 C 15.60409736633301 21.5021915435791 14.70532417297363 21.28128623962402 14.17561340332031 20.98956871032715 C 14.34514999389648 20.85626792907715 14.51518058776855 20.72251892089844 14.68570232391357 20.58838081359863 C 17.84737205505371 18.10136032104492 21.11667251586914 15.52967166900635 24.08481216430664 13.56838130950928 C 27.2226734161377 11.49496173858643 29.54428291320801 10.43380165100098 30.98517227172852 10.41437149047852 C 30.9979419708252 10.4142017364502 31.00981330871582 10.41412162780762 31.02246284484863 10.41412162780762 C 31.60956192016602 10.41412162780762 32.21457290649414 10.55812168121338 32.66239166259766 11.60274124145508 C 33.34160232543945 13.18713092803955 33.32177352905273 16.19092178344727 32.60935211181641 19.63788032531738 C 32.35232925415039 20.88144302368164 32.04502868652344 21.99526214599609 31.74098777770996 22.92255210876465 Z"/>
          <path class="cls-8" d="M 3.691536426544189 23.16530418395996 C 3.902439117431641 23.03198051452637 4.130015850067139 22.8841381072998 4.37504243850708 22.72038078308105 C 5.712303161621094 21.82665824890137 7.247709274291992 20.67712211608887 8.78834342956543 19.48750114440918 C 8.719407081604004 17.55179977416992 9.298345565795898 15.22356605529785 10.5630464553833 12.3576831817627 C 10.39352703094482 12.57583236694336 10.22490978240967 12.79486083984375 10.05756282806396 13.01432132720947 C 7.969342708587646 15.75284099578857 6.202382564544678 18.3900203704834 4.947712421417236 20.64076042175293 C 4.379603385925293 21.65989112854004 3.976894855499268 22.49326705932617 3.691536426544189 23.16530418395996 M 30.95376396179199 20.17590713500977 C 31.13011932373047 19.42963600158691 31.27943992614746 18.6727294921875 31.39351272583008 17.93970108032227 C 32.02472686767578 13.88344192504883 31.38318634033203 12.21680164337158 31.13568496704102 11.92088794708252 C 31.11250305175781 11.91757392883301 31.07559204101563 11.91412162780762 31.02246284484863 11.91412162780762 L 31.0053825378418 11.91424083709717 C 30.48471260070801 11.92126083374023 28.84865188598633 12.21843147277832 24.91176223754883 14.81985092163086 C 22.69454193115234 16.28493690490723 20.28778266906738 18.11124229431152 17.88238906860352 19.98732948303223 C 19.06396102905273 19.94090270996094 20.39111328125 19.79309272766113 21.68178176879883 19.64935111999512 C 23.31606292724609 19.46733093261719 25.00597190856934 19.27911186218262 26.52861213684082 19.27911186218262 C 27.79573631286621 19.27911186218262 29.49009704589844 19.39059066772461 30.95376396179199 20.17590713500977 M 1.347479104995728 27.38866806030273 C 0.4730979800224304 27.38866806030273 -0.01667941734194756 26.82138061523438 0.0004324920591898263 25.48746109008789 C 0.08428048342466354 18.95186614990234 15.93320560455322 2.679138106032042e-06 18.89736747741699 2.679138106032042e-06 C 19.98061370849609 2.679138106032042e-06 19.34284782409668 2.52993106842041 15.58634281158447 9.121810913085938 C 12.07827186584473 15.27774047851563 11.27987194061279 18.79612731933594 12.05224609375 20.7491569519043 C 7.44279146194458 24.35628128051758 3.368302822113037 27.38866806030273 1.347479104995728 27.38866806030273 Z M 31.22325897216797 26.98611259460449 C 30.92558288574219 26.98611259460449 30.74041748046875 26.41549491882324 30.75764274597168 25.07286071777344 C 30.7860164642334 22.8614673614502 29.00767707824707 22.27910804748535 26.52861022949219 22.27910804748535 C 23.76683235168457 22.27910804748535 20.13740348815918 23.0021915435791 17.16987037658691 23.0021915435791 C 14.73836803436279 23.0021915435791 12.75124931335449 22.51665878295898 12.05224609375 20.7491569519043 C 18.79133415222168 15.47549057006836 26.67524147033691 8.972335815429688 30.96495246887207 8.914511680603027 C 30.98465156555176 8.91424560546875 31.00295257568359 8.914122581481934 31.0224666595459 8.914122581481934 C 38.15038299560547 8.914122581481934 32.8995475769043 26.98611259460449 31.22325897216797 26.98611259460449 Z"/>
        </g>
        <g id="Path_11" data-name="Path 11" class="cls-2" transform="matrix(-0.998, -0.07, 0.07, -0.998, 43.592, 51.282)">
          <path class="cls-6" d="M 1.517800807952881 25.87330436706543 C 1.506616711616516 25.78598213195801 1.498266220092773 25.66618728637695 1.500312447547913 25.50670051574707 C 1.530962467193604 23.11774063110352 4.555232524871826 17.68314170837402 9.205002784729004 11.66140174865723 C 11.24078273773193 9.024950981140137 13.40710258483887 6.512271404266357 15.30489253997803 4.586231231689453 C 16.04839897155762 3.831656217575073 16.66020393371582 3.259061336517334 17.15757942199707 2.825126171112061 C 16.64752006530762 3.998675107955933 15.77485942840576 5.761410713195801 14.28310203552246 8.379131317138672 C 12.52285289764404 11.46800136566162 11.37435245513916 13.99321174621582 10.77197265625 16.09904098510742 C 10.31815242767334 17.68551063537598 10.17956924438477 19.0295295715332 10.35537147521973 20.17065238952637 C 8.457552909851074 21.64675140380859 6.531372547149658 23.10392379760742 4.907742500305176 24.16646194458008 C 2.888002157211304 25.48822402954102 1.930765867233276 25.8073787689209 1.517800807952881 25.87330436706543 Z M 31.74098777770996 22.92255210876465 C 31.58902359008789 22.65911483764648 31.40373039245605 22.41641807556152 31.18545341491699 22.19532203674316 C 29.93223190307617 20.9259204864502 27.92751312255859 20.77911186218262 26.52861213684082 20.77911186218262 C 25.08925247192383 20.77911186218262 23.4414119720459 20.9626407623291 21.84782218933105 21.1401309967041 C 20.2496223449707 21.31813049316406 18.59701156616211 21.5021915435791 17.16987228393555 21.5021915435791 C 15.60409736633301 21.5021915435791 14.70532417297363 21.28128623962402 14.17561340332031 20.98956871032715 C 14.34514999389648 20.85626792907715 14.51518058776855 20.72251892089844 14.68570232391357 20.58838081359863 C 17.84737205505371 18.10136032104492 21.11667251586914 15.52967166900635 24.08481216430664 13.56838130950928 C 27.2226734161377 11.49496173858643 29.54428291320801 10.43380165100098 30.98517227172852 10.41437149047852 C 30.9979419708252 10.4142017364502 31.00981330871582 10.41412162780762 31.02246284484863 10.41412162780762 C 31.60956192016602 10.41412162780762 32.21457290649414 10.55812168121338 32.66239166259766 11.60274124145508 C 33.34160232543945 13.18713092803955 33.32177352905273 16.19092178344727 32.60935211181641 19.63788032531738 C 32.35232925415039 20.88144302368164 32.04502868652344 21.99526214599609 31.74098777770996 22.92255210876465 Z"/>
          <path class="cls-8" d="M 3.691536426544189 23.16530418395996 C 3.902439117431641 23.03198051452637 4.130015850067139 22.8841381072998 4.37504243850708 22.72038078308105 C 5.712303161621094 21.82665824890137 7.247709274291992 20.67712211608887 8.78834342956543 19.48750114440918 C 8.719407081604004 17.55179977416992 9.298345565795898 15.22356605529785 10.5630464553833 12.3576831817627 C 10.39352703094482 12.57583236694336 10.22490978240967 12.79486083984375 10.05756282806396 13.01432132720947 C 7.969342708587646 15.75284099578857 6.202382564544678 18.3900203704834 4.947712421417236 20.64076042175293 C 4.379603385925293 21.65989112854004 3.976894855499268 22.49326705932617 3.691536426544189 23.16530418395996 M 30.95376396179199 20.17590713500977 C 31.13011932373047 19.42963600158691 31.27943992614746 18.6727294921875 31.39351272583008 17.93970108032227 C 32.02472686767578 13.88344192504883 31.38318634033203 12.21680164337158 31.13568496704102 11.92088794708252 C 31.11250305175781 11.91757392883301 31.07559204101563 11.91412162780762 31.02246284484863 11.91412162780762 L 31.0053825378418 11.91424083709717 C 30.48471260070801 11.92126083374023 28.84865188598633 12.21843147277832 24.91176223754883 14.81985092163086 C 22.69454193115234 16.28493690490723 20.28778266906738 18.11124229431152 17.88238906860352 19.98732948303223 C 19.06396102905273 19.94090270996094 20.39111328125 19.79309272766113 21.68178176879883 19.64935111999512 C 23.31606292724609 19.46733093261719 25.00597190856934 19.27911186218262 26.52861213684082 19.27911186218262 C 27.79573631286621 19.27911186218262 29.49009704589844 19.39059066772461 30.95376396179199 20.17590713500977 M 1.347479104995728 27.38866806030273 C 0.4730979800224304 27.38866806030273 -0.01667941734194756 26.82138061523438 0.0004324920591898263 25.48746109008789 C 0.08428048342466354 18.95186614990234 15.93320560455322 2.679138106032042e-06 18.89736747741699 2.679138106032042e-06 C 19.98061370849609 2.679138106032042e-06 19.34284782409668 2.52993106842041 15.58634281158447 9.121810913085938 C 12.07827186584473 15.27774047851563 11.27987194061279 18.79612731933594 12.05224609375 20.7491569519043 C 7.44279146194458 24.35628128051758 3.368302822113037 27.38866806030273 1.347479104995728 27.38866806030273 Z M 31.22325897216797 26.98611259460449 C 30.92558288574219 26.98611259460449 30.74041748046875 26.41549491882324 30.75764274597168 25.07286071777344 C 30.7860164642334 22.8614673614502 29.00767707824707 22.27910804748535 26.52861022949219 22.27910804748535 C 23.76683235168457 22.27910804748535 20.13740348815918 23.0021915435791 17.16987037658691 23.0021915435791 C 14.73836803436279 23.0021915435791 12.75124931335449 22.51665878295898 12.05224609375 20.7491569519043 C 18.79133415222168 15.47549057006836 26.67524147033691 8.972335815429688 30.96495246887207 8.914511680603027 C 30.98465156555176 8.91424560546875 31.00295257568359 8.914122581481934 31.0224666595459 8.914122581481934 C 38.15038299560547 8.914122581481934 32.8995475769043 26.98611259460449 31.22325897216797 26.98611259460449 Z"/>
        </g>
        <g id="Path_12" data-name="Path 12" class="cls-2" transform="matrix(-0.998, -0.07, 0.07, -0.998, 39.92, 39.749)">
          <path class="cls-6" d="M 1.517800807952881 25.87330436706543 C 1.506616711616516 25.78598213195801 1.498266220092773 25.66618728637695 1.500312447547913 25.50670051574707 C 1.530962467193604 23.11774063110352 4.555232524871826 17.68314170837402 9.205002784729004 11.66140174865723 C 11.24078273773193 9.024950981140137 13.40710258483887 6.512271404266357 15.30489253997803 4.586231231689453 C 16.04839897155762 3.831656217575073 16.66020393371582 3.259061336517334 17.15757942199707 2.825126171112061 C 16.64752006530762 3.998675107955933 15.77485942840576 5.761410713195801 14.28310203552246 8.379131317138672 C 12.52285289764404 11.46800136566162 11.37435245513916 13.99321174621582 10.77197265625 16.09904098510742 C 10.31815242767334 17.68551063537598 10.17956924438477 19.0295295715332 10.35537147521973 20.17065238952637 C 8.457552909851074 21.64675140380859 6.531372547149658 23.10392379760742 4.907742500305176 24.16646194458008 C 2.888002157211304 25.48822402954102 1.930765867233276 25.8073787689209 1.517800807952881 25.87330436706543 Z M 31.74098777770996 22.92255210876465 C 31.58902359008789 22.65911483764648 31.40373039245605 22.41641807556152 31.18545341491699 22.19532203674316 C 29.93223190307617 20.9259204864502 27.92751312255859 20.77911186218262 26.52861213684082 20.77911186218262 C 25.08925247192383 20.77911186218262 23.4414119720459 20.9626407623291 21.84782218933105 21.1401309967041 C 20.2496223449707 21.31813049316406 18.59701156616211 21.5021915435791 17.16987228393555 21.5021915435791 C 15.60409736633301 21.5021915435791 14.70532417297363 21.28128623962402 14.17561340332031 20.98956871032715 C 14.34514999389648 20.85626792907715 14.51518058776855 20.72251892089844 14.68570232391357 20.58838081359863 C 17.84737205505371 18.10136032104492 21.11667251586914 15.52967166900635 24.08481216430664 13.56838130950928 C 27.2226734161377 11.49496173858643 29.54428291320801 10.43380165100098 30.98517227172852 10.41437149047852 C 30.9979419708252 10.4142017364502 31.00981330871582 10.41412162780762 31.02246284484863 10.41412162780762 C 31.60956192016602 10.41412162780762 32.21457290649414 10.55812168121338 32.66239166259766 11.60274124145508 C 33.34160232543945 13.18713092803955 33.32177352905273 16.19092178344727 32.60935211181641 19.63788032531738 C 32.35232925415039 20.88144302368164 32.04502868652344 21.99526214599609 31.74098777770996 22.92255210876465 Z"/>
          <path class="cls-8" d="M 3.691536426544189 23.16530418395996 C 3.902439117431641 23.03198051452637 4.130015850067139 22.8841381072998 4.37504243850708 22.72038078308105 C 5.712303161621094 21.82665824890137 7.247709274291992 20.67712211608887 8.78834342956543 19.48750114440918 C 8.719407081604004 17.55179977416992 9.298345565795898 15.22356605529785 10.5630464553833 12.3576831817627 C 10.39352703094482 12.57583236694336 10.22490978240967 12.79486083984375 10.05756282806396 13.01432132720947 C 7.969342708587646 15.75284099578857 6.202382564544678 18.3900203704834 4.947712421417236 20.64076042175293 C 4.379603385925293 21.65989112854004 3.976894855499268 22.49326705932617 3.691536426544189 23.16530418395996 M 30.95376396179199 20.17590713500977 C 31.13011932373047 19.42963600158691 31.27943992614746 18.6727294921875 31.39351272583008 17.93970108032227 C 32.02472686767578 13.88344192504883 31.38318634033203 12.21680164337158 31.13568496704102 11.92088794708252 C 31.11250305175781 11.91757392883301 31.07559204101563 11.91412162780762 31.02246284484863 11.91412162780762 L 31.0053825378418 11.91424083709717 C 30.48471260070801 11.92126083374023 28.84865188598633 12.21843147277832 24.91176223754883 14.81985092163086 C 22.69454193115234 16.28493690490723 20.28778266906738 18.11124229431152 17.88238906860352 19.98732948303223 C 19.06396102905273 19.94090270996094 20.39111328125 19.79309272766113 21.68178176879883 19.64935111999512 C 23.31606292724609 19.46733093261719 25.00597190856934 19.27911186218262 26.52861213684082 19.27911186218262 C 27.79573631286621 19.27911186218262 29.49009704589844 19.39059066772461 30.95376396179199 20.17590713500977 M 1.347479104995728 27.38866806030273 C 0.4730979800224304 27.38866806030273 -0.01667941734194756 26.82138061523438 0.0004324920591898263 25.48746109008789 C 0.08428048342466354 18.95186614990234 15.93320560455322 2.679138106032042e-06 18.89736747741699 2.679138106032042e-06 C 19.98061370849609 2.679138106032042e-06 19.34284782409668 2.52993106842041 15.58634281158447 9.121810913085938 C 12.07827186584473 15.27774047851563 11.27987194061279 18.79612731933594 12.05224609375 20.7491569519043 C 7.44279146194458 24.35628128051758 3.368302822113037 27.38866806030273 1.347479104995728 27.38866806030273 Z M 31.22325897216797 26.98611259460449 C 30.92558288574219 26.98611259460449 30.74041748046875 26.41549491882324 30.75764274597168 25.07286071777344 C 30.7860164642334 22.8614673614502 29.00767707824707 22.27910804748535 26.52861022949219 22.27910804748535 C 23.76683235168457 22.27910804748535 20.13740348815918 23.0021915435791 17.16987037658691 23.0021915435791 C 14.73836803436279 23.0021915435791 12.75124931335449 22.51665878295898 12.05224609375 20.7491569519043 C 18.79133415222168 15.47549057006836 26.67524147033691 8.972335815429688 30.96495246887207 8.914511680603027 C 30.98465156555176 8.91424560546875 31.00295257568359 8.914122581481934 31.0224666595459 8.914122581481934 C 38.15038299560547 8.914122581481934 32.8995475769043 26.98611259460449 31.22325897216797 26.98611259460449 Z"/>
        </g>
        <g id="Path_13" data-name="Path 13" class="cls-2" transform="matrix(-0.998, -0.07, 0.07, -0.998, 34.578, 29.74)">
          <path class="cls-6" d="M 1.517800807952881 25.87330436706543 C 1.506616711616516 25.78598213195801 1.498266220092773 25.66618728637695 1.500312447547913 25.50670051574707 C 1.530962467193604 23.11774063110352 4.555232524871826 17.68314170837402 9.205002784729004 11.66140174865723 C 11.24078273773193 9.024950981140137 13.40710258483887 6.512271404266357 15.30489253997803 4.586231231689453 C 16.04839897155762 3.831656217575073 16.66020393371582 3.259061336517334 17.15757942199707 2.825126171112061 C 16.64752006530762 3.998675107955933 15.77485942840576 5.761410713195801 14.28310203552246 8.379131317138672 C 12.52285289764404 11.46800136566162 11.37435245513916 13.99321174621582 10.77197265625 16.09904098510742 C 10.31815242767334 17.68551063537598 10.17956924438477 19.0295295715332 10.35537147521973 20.17065238952637 C 8.457552909851074 21.64675140380859 6.531372547149658 23.10392379760742 4.907742500305176 24.16646194458008 C 2.888002157211304 25.48822402954102 1.930765867233276 25.8073787689209 1.517800807952881 25.87330436706543 Z M 31.74098777770996 22.92255210876465 C 31.58902359008789 22.65911483764648 31.40373039245605 22.41641807556152 31.18545341491699 22.19532203674316 C 29.93223190307617 20.9259204864502 27.92751312255859 20.77911186218262 26.52861213684082 20.77911186218262 C 25.08925247192383 20.77911186218262 23.4414119720459 20.9626407623291 21.84782218933105 21.1401309967041 C 20.2496223449707 21.31813049316406 18.59701156616211 21.5021915435791 17.16987228393555 21.5021915435791 C 15.60409736633301 21.5021915435791 14.70532417297363 21.28128623962402 14.17561340332031 20.98956871032715 C 14.34514999389648 20.85626792907715 14.51518058776855 20.72251892089844 14.68570232391357 20.58838081359863 C 17.84737205505371 18.10136032104492 21.11667251586914 15.52967166900635 24.08481216430664 13.56838130950928 C 27.2226734161377 11.49496173858643 29.54428291320801 10.43380165100098 30.98517227172852 10.41437149047852 C 30.9979419708252 10.4142017364502 31.00981330871582 10.41412162780762 31.02246284484863 10.41412162780762 C 31.60956192016602 10.41412162780762 32.21457290649414 10.55812168121338 32.66239166259766 11.60274124145508 C 33.34160232543945 13.18713092803955 33.32177352905273 16.19092178344727 32.60935211181641 19.63788032531738 C 32.35232925415039 20.88144302368164 32.04502868652344 21.99526214599609 31.74098777770996 22.92255210876465 Z"/>
          <path class="cls-8" d="M 3.691536426544189 23.16530418395996 C 3.902439117431641 23.03198051452637 4.130015850067139 22.8841381072998 4.37504243850708 22.72038078308105 C 5.712303161621094 21.82665824890137 7.247709274291992 20.67712211608887 8.78834342956543 19.48750114440918 C 8.719407081604004 17.55179977416992 9.298345565795898 15.22356605529785 10.5630464553833 12.3576831817627 C 10.39352703094482 12.57583236694336 10.22490978240967 12.79486083984375 10.05756282806396 13.01432132720947 C 7.969342708587646 15.75284099578857 6.202382564544678 18.3900203704834 4.947712421417236 20.64076042175293 C 4.379603385925293 21.65989112854004 3.976894855499268 22.49326705932617 3.691536426544189 23.16530418395996 M 30.95376396179199 20.17590713500977 C 31.13011932373047 19.42963600158691 31.27943992614746 18.6727294921875 31.39351272583008 17.93970108032227 C 32.02472686767578 13.88344192504883 31.38318634033203 12.21680164337158 31.13568496704102 11.92088794708252 C 31.11250305175781 11.91757392883301 31.07559204101563 11.91412162780762 31.02246284484863 11.91412162780762 L 31.0053825378418 11.91424083709717 C 30.48471260070801 11.92126083374023 28.84865188598633 12.21843147277832 24.91176223754883 14.81985092163086 C 22.69454193115234 16.28493690490723 20.28778266906738 18.11124229431152 17.88238906860352 19.98732948303223 C 19.06396102905273 19.94090270996094 20.39111328125 19.79309272766113 21.68178176879883 19.64935111999512 C 23.31606292724609 19.46733093261719 25.00597190856934 19.27911186218262 26.52861213684082 19.27911186218262 C 27.79573631286621 19.27911186218262 29.49009704589844 19.39059066772461 30.95376396179199 20.17590713500977 M 1.347479104995728 27.38866806030273 C 0.4730979800224304 27.38866806030273 -0.01667941734194756 26.82138061523438 0.0004324920591898263 25.48746109008789 C 0.08428048342466354 18.95186614990234 15.93320560455322 2.679138106032042e-06 18.89736747741699 2.679138106032042e-06 C 19.98061370849609 2.679138106032042e-06 19.34284782409668 2.52993106842041 15.58634281158447 9.121810913085938 C 12.07827186584473 15.27774047851563 11.27987194061279 18.79612731933594 12.05224609375 20.7491569519043 C 7.44279146194458 24.35628128051758 3.368302822113037 27.38866806030273 1.347479104995728 27.38866806030273 Z M 31.22325897216797 26.98611259460449 C 30.92558288574219 26.98611259460449 30.74041748046875 26.41549491882324 30.75764274597168 25.07286071777344 C 30.7860164642334 22.8614673614502 29.00767707824707 22.27910804748535 26.52861022949219 22.27910804748535 C 23.76683235168457 22.27910804748535 20.13740348815918 23.0021915435791 17.16987037658691 23.0021915435791 C 14.73836803436279 23.0021915435791 12.75124931335449 22.51665878295898 12.05224609375 20.7491569519043 C 18.79133415222168 15.47549057006836 26.67524147033691 8.972335815429688 30.96495246887207 8.914511680603027 C 30.98465156555176 8.91424560546875 31.00295257568359 8.914122581481934 31.0224666595459 8.914122581481934 C 38.15038299560547 8.914122581481934 32.8995475769043 26.98611259460449 31.22325897216797 26.98611259460449 Z"/>
        </g>
      </g>
      <line id="Line_9" data-name="Line 9" class="cls-5" y1="8.894" x2="15.247" transform="translate(74.329 57.812)"/>
      <line id="Line_10" data-name="Line 10" class="cls-5" x2="13.976" transform="translate(74.329 45.106)"/>
      <line id="Line_11" data-name="Line 11" class="cls-5" y1="6.353" x2="10.165" transform="translate(74.329 26.047)"/>
      <line id="Line_12" data-name="Line 12" class="cls-5" x1="10.165" y1="6.353" transform="translate(15.882 26.047)"/>
      <line id="Line_13" data-name="Line 13" class="cls-5" x1="13.976" transform="translate(12.071 45.106)"/>
      <line id="Line_14" data-name="Line 14" class="cls-5" x2="15.247" y2="8.894" transform="translate(12.071 59.082)"/>
    </g>
  </g>
</svg>
