<svg xmlns="http://www.w3.org/2000/svg" viewBox="0 0 300 300">
  <defs>
    <style>
      .cls-1 {
        fill: none;
      }

      .cls-1, .cls-2 {
        stroke: #606060;
        stroke-width: 10px;
      }

      .cls-3, .cls-5 {
        fill: rgba(255,255,255,0);
      }

      .cls-4, .cls-6 {
        fill: #606060;
      }

      .cls-7, .cls-8 {
        stroke: none;
      }

      .cls-8 {
        fill: #707070;
      }
    </style>
  </defs>
  <g id="speedometer" transform="translate(-261 -192)">
    <line id="Line_2" data-name="Line 2" class="cls-1" x2="50" transform="translate(261.5 342.5)"/>
    <path id="Path_3" data-name="Path 3" class="cls-2" d="M0,0H50" transform="translate(510.5 342.5)"/>
    <line id="Line_4" data-name="Line 4" class="cls-1" x2="50" transform="translate(489.287 400.287) rotate(45)"/>
    <line id="Line_5" data-name="Line 5" class="cls-1" x2="50" transform="translate(334.713 404.287) rotate(135)"/>
    <line id="Line_6" data-name="Line 6" class="cls-1" x2="50" transform="translate(299.287 245.287) rotate(45)"/>
    <line id="Line_7" data-name="Line 7" class="cls-1" x2="50" transform="translate(524.713 245.287) rotate(135)"/>
    <path id="Path_2" data-name="Path 2" class="cls-1" d="M0,0H50" transform="translate(411 192.5) rotate(90)"/>
    <g id="Path_20" data-name="Path 20" class="cls-3" transform="translate(261 192)">
      <path class="cls-7" d="M 150 292.5 C 71.42522430419922 292.5 7.5 228.5747680664063 7.5 150 C 7.5 71.42522430419922 71.42522430419922 7.5 150 7.5 C 228.5747680664063 7.5 292.5 71.42522430419922 292.5 150 C 292.5 228.5747680664063 228.5747680664063 292.5 150 292.5 Z"/>
      <path class="cls-8" d="M 150 285 C 224.4392700195313 285 285 224.4392700195313 285 150 C 285 75.56073760986328 224.4392700195313 15 150 15 C 75.56073760986328 15 15 75.56073760986328 15 150 C 15 224.4392700195313 75.56073760986328 285 150 285 M 150 300 C 67.15731811523438 300 0 232.8427429199219 0 150 C 0 67.15731811523438 67.15731811523438 0 150 0 C 232.8427429199219 0 300 67.15731811523438 300 150 C 300 232.8427429199219 232.8427429199219 300 150 300 Z"/>
    </g>
    <g id="Group_3" data-name="Group 3" transform="translate(21 -6)">
      <g id="Path_4" data-name="Path 4" class="cls-4" transform="translate(415.349 325.368) rotate(77)">
        <path class="cls-7" d="M 16.89849662780762 42.17778015136719 C 12.76122951507568 42.17778015136719 9.583096504211426 39.51299667358398 7.452362537384033 34.25743103027344 C 5.572662830352783 29.62099647521973 4.57909631729126 23.05802917480469 4.57909631729126 15.27801322937012 C 4.57909631729126 8.495363235473633 5.493829250335693 -15.55363750457764 7.316446304321289 -39.33048629760742 C 8.29749584197998 -52.12863540649414 9.356629371643066 -62.34568786621094 10.46441268920898 -69.69780731201172 C 11.09672927856445 -73.89435577392578 11.74531269073486 -77.13552093505859 12.39216232299805 -79.33128356933594 C 13.33102989196777 -82.51838684082031 13.99997901916504 -82.61544036865234 14.07316303253174 -82.61600494384766 C 14.14946269989014 -82.61600494384766 14.84174633026123 -82.52311706542969 15.98841285705566 -79.30585479736328 C 16.7750301361084 -77.09880065917969 17.62502861022949 -73.84793853759766 18.51479530334473 -69.6435546875 C 20.08316230773926 -62.23252105712891 21.8026123046875 -51.69685363769531 23.48724555969238 -39.17555236816406 C 26.66446304321289 -15.56025409698486 28.87862968444824 8.62651252746582 28.87862968444824 15.56369590759277 C 28.87862968444824 19.33861351013184 28.66566276550293 22.8106632232666 28.24564552307129 25.88337898254395 C 27.79247856140137 29.19853019714355 27.09519577026367 32.06554794311523 26.17317962646484 34.4047966003418 C 25.18972969055176 36.89989471435547 23.93943023681641 38.82101440429688 22.45701217651367 40.11476135253906 C 20.88847923278809 41.48368072509766 19.01831245422363 42.17778015136719 16.89849662780762 42.17778015136719 Z"/>
        <path class="cls-8" d="M 16.89849662780762 41.67778015136719 C 18.92201232910156 41.67778015136719 20.6326789855957 41.04329681396484 22.12824630737305 39.73806381225586 C 23.54977989196777 38.49742889404297 24.75419616699219 36.64138031005859 25.7080135345459 34.2214469909668 C 26.61539649963379 31.91934585571289 27.3024959564209 29.09123039245605 27.75024604797363 25.8156623840332 C 28.16721343994141 22.76531219482422 28.37862968444824 19.3160457611084 28.37862968444824 15.56369590759277 C 28.37862968444824 12.07666301727295 27.83684539794922 4.454362869262695 26.89219665527344 -5.348753929138184 C 25.89292907714844 -15.71860408782959 24.5690803527832 -27.24927139282227 23.16449546813965 -37.81670379638672 C 21.53176307678223 -50.1007194519043 19.85494613647461 -60.58783721923828 18.31536293029785 -68.14430236816406 C 17.44551277160645 -72.41355133056641 16.61186218261719 -75.79431915283203 15.83752918243408 -78.19267272949219 C 14.95452499389648 -80.92765045166016 14.33537101745605 -81.78157806396484 14.08621597290039 -82.03520202636719 C 13.8543701171875 -81.76971435546875 13.29335021972656 -80.89115142822266 12.58497905731201 -78.14787292480469 C 11.96409606933594 -75.74340057373047 11.34149646759033 -72.35935211181641 10.73446273803711 -68.08973693847656 C 9.667495727539063 -60.58530426025391 8.649079322814941 -50.41965484619141 7.707496166229248 -37.87517166137695 C 6.079029560089111 -16.17950439453125 5.07909631729126 7.70516300201416 5.07909631729126 15.27801322937012 C 5.07909631729126 22.9942455291748 6.059996128082275 29.49226188659668 7.915729522705078 34.069580078125 C 8.913262367248535 36.53004455566406 10.15804576873779 38.42211151123047 11.61547946929932 39.69319534301758 C 13.125412940979 41.01006317138672 14.90287971496582 41.67778015136719 16.89849662780762 41.67778015136719 M 16.89849662780762 42.67778015136719 C 7.565712928771973 42.67778015136719 4.07909631729126 29.85772895812988 4.07909631729126 15.27801322937012 C 4.07909631729126 0.6982794404029846 8.052562713623047 -83.06884002685547 14.06924629211426 -83.11598968505859 C 14.07071495056152 -83.11599731445313 14.07283496856689 -83.11600494384766 14.07430362701416 -83.11600494384766 C 20.09113311767578 -83.11600494384766 29.37862968444824 0.987522304058075 29.37862968444824 15.56369590759277 C 29.37862968444824 30.14342880249023 26.23127937316895 42.67778015136719 16.89849662780762 42.67778015136719 Z"/>
      </g>
      <circle id="Ellipse_2" data-name="Ellipse 2" class="cls-5" cx="3.5" cy="3.5" r="3.5" transform="translate(389 345)"/>
    </g>
    <circle id="Ellipse_3" data-name="Ellipse 3" class="cls-6" cx="3.5" cy="3.5" r="3.5" transform="translate(346 429)"/>
    <circle id="Ellipse_4" data-name="Ellipse 4" class="cls-6" cx="3.5" cy="3.5" r="3.5" transform="translate(466 429)"/>
  </g>
</svg>
