<svg xmlns="http://www.w3.org/2000/svg" viewBox="0 0 300 300">
  <defs>
    <style>
      .cls-1, .cls-4 {
        fill: rgba(255,255,255,0);
      }

      .cls-2 {
        fill: rgba(112,112,112,0);
      }

      .cls-3, .cls-9 {
        fill: #707070;
      }

      .cls-10, .cls-5 {
        fill: #606060;
      }

      .cls-6, .cls-7 {
        fill: #d8c3a5;
      }

      .cls-10, .cls-8, .cls-9 {
        stroke: none;
      }
    </style>
  </defs>
  <g id="responsive" transform="translate(-1720 -192)">
    <path id="Path_19" data-name="Path 19" class="cls-1" d="M0,0H300V300H0Z" transform="translate(1720 192)"/>
    <g id="desktop" transform="translate(-468 69.345)">
      <g id="Group_6" data-name="Group 6" transform="translate(-333 -10)">
        <g id="Path_17" data-name="Path 17" class="cls-2" transform="translate(2521 196)">
          <path class="cls-8" d="M 292.1320495605469 153.9554595947266 L 8.767170906066895 153.9554595947266 C 8.295321464538574 153.6688537597656 7.842498302459717 153.3591766357422 7.500016689300537 153.0869293212891 L 7.500016689300537 6.919510364532471 L 292.7152404785156 7.500010013580322 L 292.1320495605469 153.9554595947266 Z"/>
          <path class="cls-9" d="M 284.6297607421875 146.4554748535156 L 284.6297607421875 15.00000095367432 L 14.99998569488525 15.00000095367432 L 14.99998569488525 146.4554748535156 L 284.6297607421875 146.4554748535156 M 292.7152404785156 161.4554748535156 L 6.914564609527588 161.4554748535156 C 6.914564609527588 161.4554748535156 -1.436574802937685e-05 158.3575286865234 -1.436574802937685e-05 154.5359497070313 L -1.436574802937685e-05 6.919527053833008 C -1.436574802937685e-05 3.098000526428223 3.095775127410889 5.846525255037704e-07 6.914564609527588 5.846525255037704e-07 L 292.7152404785156 5.846525255037704e-07 C 296.5340270996094 5.846525255037704e-07 299.6297607421875 3.098000526428223 299.6297607421875 6.919527053833008 L 299.6297607421875 154.5359497070313 C 299.6297607421875 158.3575286865234 296.5340270996094 161.4554748535156 292.7152404785156 161.4554748535156 Z"/>
        </g>
        <g id="Path_21" data-name="Path 21" class="cls-3" transform="translate(2521 195)">
          <path class="cls-8" d="M 214.4690704345703 183.9553985595703 C 209.4079895019531 183.9553985595703 201.7549591064453 183.8882446289063 201.6782684326172 183.8875885009766 L 97.95587921142578 183.8875579833984 L 80.82093048095703 183.8875579833984 C 80.47978973388672 183.6459655761719 79.42298126220703 182.8010864257813 79.26822662353516 181.5122528076172 C 79.13092041015625 180.3683624267578 79.72130584716797 179.1283264160156 81.0230712890625 177.8265533447266 C 85.23280334472656 173.6168975830078 98.03845977783203 167.6144409179688 98.16734313964844 167.5542907714844 L 98.45587921142578 167.4196319580078 L 98.45587921142578 167.1012115478516 L 98.45587921142578 161.9554748535156 L 201.1738433837891 161.9554748535156 L 201.1738433837891 167.1012115478516 L 201.1738433837891 167.4196319580078 L 201.4623870849609 167.5542907714844 C 201.5912628173828 167.6144409179688 214.3969573974609 173.6168975830078 218.606689453125 177.8265533447266 C 219.9084625244141 179.1283264160156 220.4988403320313 180.3683624267578 220.3615417480469 181.5122528076172 C 220.2012634277344 182.8470306396484 219.0735015869141 183.7056121826172 218.7743530273438 183.9115447998047 C 218.5253143310547 183.9285888671875 217.6302337646484 183.9553985595703 214.4690704345703 183.9553985595703 Z"/>
          <path class="cls-9" d="M 214.4690704345703 183.4553985595703 C 217.2204895019531 183.4553985595703 218.2314147949219 183.4354248046875 218.6014556884766 183.4199676513672 C 218.9491729736328 183.1575927734375 219.7483825683594 182.4527893066406 219.8659515380859 181.4454040527344 C 219.9805297851563 180.4635162353516 219.4379119873047 179.3648986816406 218.2531127929688 178.1801300048828 C 214.1058807373047 174.0328979492188 201.3789978027344 168.0671691894531 201.2509155273438 168.0073699951172 L 200.6738433837891 167.7380218505859 L 200.6738433837891 167.1012115478516 L 200.6738433837891 162.4554748535156 L 98.95587921142578 162.4554748535156 L 98.95587921142578 167.1012115478516 L 98.95584106445313 167.7380523681641 L 98.37880706787109 168.0073699951172 C 98.25072479248047 168.0671691894531 85.52388000488281 174.0328979492188 81.37664794921875 178.1801300048828 C 80.19184112548828 179.3648986816406 79.64922332763672 180.4635162353516 79.76380157470703 181.4454040527344 C 79.8768310546875 182.4138336181641 80.61980438232422 183.1026306152344 80.98600769042969 183.3875579833984 L 97.95587921142578 183.3875579833984 L 201.6738433837891 183.3875579833984 L 201.6782684326172 183.3875579833984 L 201.6826934814453 183.3875885009766 C 201.7593841552734 183.3882904052734 209.4103088378906 183.4553985595703 214.4690704345703 183.4553985595703 M 214.4690704345703 184.4554138183594 C 209.34716796875 184.4554138183594 201.6738433837891 184.3875579833984 201.6738433837891 184.3875579833984 L 97.95587921142578 184.3875579833984 L 80.66953277587891 184.3875579833984 C 80.66953277587891 184.3875579833984 76.34795379638672 181.7946014404297 80.66953277587891 177.4730224609375 C 84.99114990234375 173.1514434814453 97.95587921142578 167.1012115478516 97.95587921142578 167.1012115478516 L 97.95587921142578 161.4554748535156 C 136.7109985351563 161.4554748535156 220.8191070556641 161.4554748535156 220.8191070556641 161.4554748535156 C 220.8191070556641 161.4554748535156 215.187255859375 161.4554748535156 201.6738433837891 161.4554748535156 L 201.6738433837891 167.1012115478516 C 201.6738433837891 167.1012115478516 214.6386108398438 173.1514434814453 218.9602203369141 177.4730224609375 C 223.2817993164063 181.7946014404297 218.9602203369141 184.3875579833984 218.9602203369141 184.3875579833984 C 218.9530944824219 184.4384460449219 217.02978515625 184.4554138183594 214.4690704345703 184.4554138183594 Z M 97.95587921142578 161.4554748535156 C 86.35126495361328 161.4554748535156 78.81063842773438 161.4554748535156 78.81063842773438 161.4554748535156 C 78.81063842773438 161.4554748535156 84.44827270507813 161.4554748535156 97.95587921142578 161.4554748535156 Z"/>
        </g>
      </g>
      <g id="Path_22" data-name="Path 22" class="cls-4" transform="translate(2199.524 199.677)">
        <path class="cls-8" d="M 276.0813293457031 137.0307922363281 L 0.5000218152999878 137.0307922363281 L 0.5000218152999878 0.5000032782554626 L 276.0813293457031 0.5000032782554626 L 276.0813293457031 137.0307922363281 Z"/>
        <path class="cls-9" d="M 275.5813293457031 136.5307922363281 L 275.5813293457031 1.000003218650818 L 1.000021815299988 1.000003218650818 L 1.000021815299988 136.5307922363281 L 275.5813293457031 136.5307922363281 M 276.5813293457031 137.5307922363281 L 2.181570926040877e-05 137.5307922363281 L 2.181570926040877e-05 3.261021220168914e-06 L 276.5813293457031 3.261021220168914e-06 L 276.5813293457031 137.5307922363281 Z"/>
      </g>
    </g>
    <g id="tablet" transform="translate(587.344 -938.144) rotate(34)">
      <g id="Path_16" data-name="Path 16" class="cls-5" transform="translate(1837 283)">
        <path class="cls-8" d="M 71.31722259521484 135.3668060302734 L 10.5028600692749 135.3668060302734 C 5.262969017028809 135.3668060302734 1.000005483627319 131.1038360595703 1.000005483627319 125.8639450073242 L 1.000005483627319 10.50285720825195 C 1.000005483627319 5.262966632843018 5.262969017028809 1.000002980232239 10.5028600692749 1.000002980232239 L 71.31722259521484 1.000002980232239 C 76.55711364746094 1.000002980232239 80.82007598876953 5.262966632843018 80.82007598876953 10.50285720825195 L 80.82007598876953 125.8639450073242 C 80.82007598876953 131.1038360595703 76.55711364746094 135.3668060302734 71.31722259521484 135.3668060302734 Z"/>
        <path class="cls-10" d="M 71.31722259521484 134.3668060302734 C 76.00572204589844 134.3668060302734 79.82008361816406 130.5524444580078 79.82008361816406 125.8639602661133 L 79.82008361816406 10.50286293029785 C 79.82008361816406 5.8143630027771 76.00572204589844 2.000003099441528 71.31722259521484 2.000003099441528 L 10.50286197662354 2.000003099441528 C 5.814361572265625 2.000003099441528 2.000001907348633 5.8143630027771 2.000001907348633 10.50286293029785 L 2.000001907348633 125.8639602661133 C 2.000001907348633 130.5524444580078 5.814361572265625 134.3668060302734 10.50286197662354 134.3668060302734 L 71.31722259521484 134.3668060302734 M 71.31722259521484 136.3668060302734 L 10.50286197662354 136.3668060302734 C 4.702281951904297 136.3668060302734 1.809082050385769e-06 131.6645202636719 1.809082050385769e-06 125.8639602661133 L 1.809082050385769e-06 10.50286293029785 C 1.809082050385769e-06 4.702282905578613 4.702281951904297 3.015136826434173e-06 10.50286197662354 3.015136826434173e-06 L 71.31722259521484 3.015136826434173e-06 C 77.11780548095703 3.015136826434173e-06 81.82008361816406 4.702282905578613 81.82008361816406 10.50286293029785 L 81.82008361816406 125.8639602661133 C 81.82008361816406 131.6645202636719 77.11780548095703 136.3668060302734 71.31722259521484 136.3668060302734 Z"/>
      </g>
      <g id="Path_15" data-name="Path 15" class="cls-6" transform="translate(1843.01 290.712)">
        <path class="cls-8" d="M 68.48043060302734 120.0416259765625 L 0.9999948143959045 120.0416259765625 L 0.9999948143959045 0.9999963045120239 L 68.48043060302734 0.9999963045120239 L 68.48043060302734 120.0416259765625 Z"/>
        <path class="cls-10" d="M 67.48043060302734 119.0416259765625 L 67.48043060302734 1.999996304512024 L 1.999994874000549 1.999996304512024 L 1.999994874000549 119.0416259765625 L 67.48043060302734 119.0416259765625 M 69.48043060302734 121.0416259765625 L -5.179850177228218e-06 121.0416259765625 L -5.179850177228218e-06 -3.67838538295473e-06 L 69.48043060302734 -3.67838538295473e-06 L 69.48043060302734 121.0416259765625 Z"/>
      </g>
      <g id="tablet_buttons" data-name="tablet buttons" transform="translate(1869.681 416.097) rotate(-90)">
        <rect id="Rectangle_4" data-name="Rectangle 4" class="cls-7" width="3.194" height="6.387" rx="1.597" transform="translate(0 5.11)"/>
        <circle id="Ellipse_6" data-name="Ellipse 6" class="cls-7" cx="1.597" cy="1.597" r="1.597" transform="translate(0)"/>
        <circle id="Ellipse_7" data-name="Ellipse 7" class="cls-7" cx="1.597" cy="1.597" r="1.597" transform="translate(0 13.413)"/>
      </g>
    </g>
    <g id="phone" transform="translate(-98.653 82.579)">
      <g id="Path_23" data-name="Path 23" class="cls-5" transform="translate(1837 283)">
        <path class="cls-8" d="M 55.65259170532227 113.4209899902344 L 13.0000057220459 113.4209899902344 C 9.794682502746582 113.4209899902344 6.78122091293335 112.1727752685547 4.514728546142578 109.9062652587891 C 2.248220920562744 107.6397705078125 1.000005483627319 104.6263122558594 1.000005483627319 101.4209899902344 L 1.000005483627319 13.00000286102295 C 1.000005483627319 9.794679641723633 2.248220920562744 6.7812180519104 4.514728546142578 4.514725685119629 C 6.78122091293335 2.248218059539795 9.794682502746582 1.00000274181366 13.0000057220459 1.00000274181366 L 55.65259170532227 1.00000274181366 C 58.85791397094727 1.00000274181366 61.87137603759766 2.248218059539795 64.13787078857422 4.514725685119629 C 66.40437316894531 6.7812180519104 67.652587890625 9.794679641723633 67.652587890625 13.00000286102295 L 67.652587890625 101.4209899902344 C 67.652587890625 104.6263122558594 66.40437316894531 107.6397705078125 64.13787078857422 109.9062652587891 C 61.87137603759766 112.1727752685547 58.85791397094727 113.4209899902344 55.65259170532227 113.4209899902344 Z"/>
        <path class="cls-10" d="M 55.6525993347168 112.4209976196289 C 58.59079742431641 112.4209976196289 61.3531494140625 111.2767944335938 63.43076324462891 109.1991653442383 C 65.50839996337891 107.1215438842773 66.65259552001953 104.3591918945313 66.65259552001953 101.4209976196289 L 66.65259552001953 12.99999523162842 C 66.65259552001953 10.06179523468018 65.50839996337891 7.299445152282715 63.43076324462891 5.221828460693359 C 61.3531494140625 3.144195079803467 58.59079742431641 1.999994993209839 55.6525993347168 1.999994993209839 L 12.99999809265137 1.999994993209839 C 10.06179809570313 1.999994993209839 7.299447536468506 3.144195079803467 5.221831321716309 5.221828460693359 C 3.144197702407837 7.299445152282715 1.999997735023499 10.06179523468018 1.999997735023499 12.99999523162842 L 1.999997735023499 101.4209976196289 C 1.999997735023499 104.3591918945313 3.144197702407837 107.1215438842773 5.221831321716309 109.1991653442383 C 7.299447536468506 111.2767944335938 10.06179809570313 112.4209976196289 12.99999809265137 112.4209976196289 L 55.6525993347168 112.4209976196289 M 55.6525993347168 114.4209976196289 L 12.99999809265137 114.4209976196289 C 5.820297718048096 114.4209976196289 -2.239990180896712e-06 108.6006927490234 -2.239990180896712e-06 101.4209976196289 L -2.239990180896712e-06 12.99999523162842 C -2.239990180896712e-06 5.820294857025146 5.820297718048096 -5.004882950743195e-06 12.99999809265137 -5.004882950743195e-06 L 55.6525993347168 -5.004882950743195e-06 C 62.83229827880859 -5.004882950743195e-06 68.65259552001953 5.820294857025146 68.65259552001953 12.99999523162842 L 68.65259552001953 101.4209976196289 C 68.65259552001953 108.6006927490234 62.83229827880859 114.4209976196289 55.6525993347168 114.4209976196289 Z"/>
      </g>
      <path id="Path_24" data-name="Path 24" class="cls-7" d="M5.149,0A5.149,5.149,0,1,1,0,5.149,5.149,5.149,0,0,1,5.149,0Z" transform="translate(1866.75 383.69)"/>
      <g id="Path_18" data-name="Path 18" class="cls-6" transform="translate(1844.652 297.875)">
        <path class="cls-8" d="M 52.3485107421875 82.52732849121094 L 0.9999979138374329 82.52732849121094 L 0.9999979138374329 1.000004887580872 L 52.3485107421875 1.000004887580872 L 52.3485107421875 82.52732849121094 Z"/>
        <path class="cls-10" d="M 51.34850311279297 81.52732086181641 L 51.34850311279297 1.999997973442078 L 2.000003576278687 1.999997973442078 L 2.000003576278687 81.52732086181641 L 51.34850311279297 81.52732086181641 M 53.34850311279297 83.52732086181641 L 3.46374508808367e-06 83.52732086181641 L 3.46374508808367e-06 -2.069091806333745e-06 L 53.34850311279297 -2.069091806333745e-06 L 53.34850311279297 83.52732086181641 Z"/>
      </g>
    </g>
  </g>
</svg>
